<svg width="83" height="13" viewBox="0 0 83 13" fill="none" xmlns="http://www.w3.org/2000/svg">
<g id="The Jornal">
<path d="M0.568176 2.39206V0.363647H10.125V2.39206H6.56249V12H4.13068V2.39206H0.568176Z" fill="black"/>
<path d="M14.0739 6.95456V12H11.6534V0.363647H14.0057V4.81251H14.1079C14.3049 4.29736 14.6231 3.89395 15.0625 3.60228C15.5019 3.30683 16.053 3.1591 16.7159 3.1591C17.322 3.1591 17.8504 3.29168 18.3011 3.55683C18.7557 3.81819 19.108 4.19509 19.358 4.68751C19.6117 5.17615 19.7367 5.76137 19.733 6.44319V12H17.3125V6.87501C17.3163 6.33713 17.1799 5.91857 16.9034 5.61933C16.6307 5.32009 16.2481 5.17047 15.7557 5.17047C15.4261 5.17047 15.1345 5.24054 14.8807 5.38069C14.6307 5.52084 14.4337 5.72539 14.2898 5.99433C14.1496 6.25948 14.0776 6.57956 14.0739 6.95456Z" fill="black"/>
<path d="M25.6151 12.1705C24.7173 12.1705 23.9446 11.9886 23.2969 11.625C22.6529 11.2576 22.1567 10.7386 21.8082 10.0682C21.4597 9.39395 21.2855 8.5966 21.2855 7.67615C21.2855 6.77842 21.4597 5.99054 21.8082 5.31251C22.1567 4.63448 22.6472 4.10607 23.2798 3.72728C23.9162 3.3485 24.6624 3.1591 25.5185 3.1591C26.0942 3.1591 26.6302 3.25191 27.1264 3.43751C27.6264 3.61933 28.062 3.89395 28.4332 4.26137C28.8082 4.6288 29.0999 5.09092 29.3082 5.64774C29.5166 6.20077 29.6207 6.8485 29.6207 7.59092V8.25569H22.2514V6.75569H27.3423C27.3423 6.40721 27.2666 6.0985 27.1151 5.82956C26.9635 5.56062 26.7533 5.35039 26.4844 5.19887C26.2192 5.04357 25.9105 4.96592 25.5582 4.96592C25.1908 4.96592 24.8651 5.05115 24.581 5.2216C24.3007 5.38827 24.081 5.61365 23.9219 5.89774C23.7628 6.17804 23.6813 6.49054 23.6776 6.83524V8.26137C23.6776 8.69319 23.7571 9.0663 23.9162 9.38069C24.0791 9.69509 24.3082 9.93751 24.6037 10.108C24.8991 10.2784 25.2495 10.3636 25.6548 10.3636C25.9238 10.3636 26.17 10.3258 26.3935 10.25C26.6169 10.1743 26.8082 10.0606 26.9673 9.9091C27.1264 9.75759 27.2476 9.57198 27.331 9.35228L29.5696 9.50001C29.456 10.0379 29.223 10.5076 28.8707 10.9091C28.5222 11.3068 28.0715 11.6174 27.5185 11.8409C26.9692 12.0606 26.3347 12.1705 25.6151 12.1705Z" fill="black"/>
<path d="M39.6079 0.363647H42.0398V8.47728C42.0398 9.22728 41.8712 9.8788 41.5341 10.4318C41.2008 10.9849 40.7367 11.411 40.142 11.7102C39.5473 12.0095 38.8561 12.1591 38.0682 12.1591C37.3674 12.1591 36.7311 12.036 36.1591 11.7898C35.5909 11.5398 35.1401 11.161 34.8068 10.6534C34.4735 10.1421 34.3087 9.50001 34.3125 8.72728H36.7614C36.7689 9.0341 36.8314 9.29736 36.9489 9.51706C37.0701 9.73297 37.2348 9.89963 37.4432 10.0171C37.6553 10.1307 37.9053 10.1875 38.1932 10.1875C38.4962 10.1875 38.7519 10.1231 38.9602 9.99433C39.1723 9.86175 39.3333 9.66857 39.4432 9.41478C39.553 9.161 39.6079 8.8485 39.6079 8.47728V0.363647Z" fill="black"/>
<path d="M47.9716 12.1705C47.089 12.1705 46.3258 11.983 45.6818 11.608C45.0417 11.2292 44.5473 10.7027 44.1989 10.0284C43.8504 9.35039 43.6761 8.56441 43.6761 7.67047C43.6761 6.76895 43.8504 5.98107 44.1989 5.30683C44.5473 4.6288 45.0417 4.10228 45.6818 3.72728C46.3258 3.3485 47.089 3.1591 47.9716 3.1591C48.8542 3.1591 49.6155 3.3485 50.2557 3.72728C50.8996 4.10228 51.3958 4.6288 51.7443 5.30683C52.0928 5.98107 52.267 6.76895 52.267 7.67047C52.267 8.56441 52.0928 9.35039 51.7443 10.0284C51.3958 10.7027 50.8996 11.2292 50.2557 11.608C49.6155 11.983 48.8542 12.1705 47.9716 12.1705ZM47.9829 10.2955C48.3845 10.2955 48.7197 10.1818 48.9886 9.95456C49.2576 9.7235 49.4602 9.4091 49.5966 9.01138C49.7367 8.61365 49.8068 8.161 49.8068 7.65342C49.8068 7.14584 49.7367 6.69319 49.5966 6.29547C49.4602 5.89774 49.2576 5.58334 48.9886 5.35228C48.7197 5.12122 48.3845 5.00569 47.9829 5.00569C47.5776 5.00569 47.2367 5.12122 46.9602 5.35228C46.6875 5.58334 46.4811 5.89774 46.3409 6.29547C46.2045 6.69319 46.1364 7.14584 46.1364 7.65342C46.1364 8.161 46.2045 8.61365 46.3409 9.01138C46.4811 9.4091 46.6875 9.7235 46.9602 9.95456C47.2367 10.1818 47.5776 10.2955 47.9829 10.2955Z" fill="black"/>
<path d="M53.8409 12V3.27274H56.1875V4.79547H56.2784C56.4375 4.2538 56.7045 3.84471 57.0795 3.56819C57.4545 3.28789 57.8864 3.14774 58.375 3.14774C58.4962 3.14774 58.6269 3.15531 58.767 3.17047C58.9072 3.18562 59.0303 3.20645 59.1364 3.23297V5.38069C59.0227 5.3466 58.8655 5.3163 58.6648 5.28978C58.464 5.26327 58.2803 5.25001 58.1136 5.25001C57.7576 5.25001 57.4394 5.32766 57.1591 5.48297C56.8826 5.63448 56.6629 5.8466 56.5 6.11933C56.3409 6.39206 56.2614 6.70645 56.2614 7.06251V12H53.8409Z" fill="black"/>
<path d="M62.8082 6.95456V12H60.3878V3.27274H62.6946V4.81251H62.7969C62.9901 4.30494 63.3139 3.90342 63.7685 3.60797C64.223 3.30872 64.7741 3.1591 65.4219 3.1591C66.0279 3.1591 66.5563 3.29168 67.0071 3.55683C67.4579 3.82198 67.8082 4.20077 68.0582 4.69319C68.3082 5.18183 68.4332 5.76516 68.4332 6.44319V12H66.0128V6.87501C66.0166 6.34092 65.8802 5.92425 65.6037 5.62501C65.3272 5.32198 64.9465 5.17047 64.4616 5.17047C64.1359 5.17047 63.848 5.24054 63.598 5.38069C63.3518 5.52084 63.1586 5.72539 63.0185 5.99433C62.8821 6.25948 62.812 6.57956 62.8082 6.95456Z" fill="black"/>
<path d="M72.8295 12.1648C72.2727 12.1648 71.7765 12.0682 71.3409 11.875C70.9053 11.678 70.5606 11.3883 70.3068 11.0057C70.0568 10.6193 69.9318 10.1383 69.9318 9.56251C69.9318 9.07766 70.0208 8.67047 70.1989 8.34092C70.3769 8.01137 70.6193 7.74622 70.9261 7.54547C71.2329 7.34471 71.5814 7.19319 71.9716 7.09092C72.3655 6.98865 72.7784 6.91668 73.2102 6.87501C73.7178 6.82198 74.1269 6.77274 74.4375 6.72728C74.7481 6.67804 74.9735 6.60607 75.1136 6.51137C75.2538 6.41668 75.3239 6.27653 75.3239 6.09092V6.05683C75.3239 5.69698 75.2102 5.41857 74.9829 5.2216C74.7595 5.02463 74.4413 4.92615 74.0284 4.92615C73.5928 4.92615 73.2462 5.02274 72.9886 5.21592C72.7311 5.40531 72.5606 5.64395 72.4773 5.93183L70.2386 5.75001C70.3523 5.21971 70.5758 4.76137 70.9091 4.37501C71.2424 3.98486 71.6723 3.68562 72.1989 3.47728C72.7292 3.26516 73.3428 3.1591 74.0398 3.1591C74.5246 3.1591 74.9886 3.21592 75.4318 3.32956C75.8788 3.44319 76.2746 3.61933 76.6193 3.85797C76.9678 4.0966 77.2424 4.40342 77.4432 4.77842C77.6439 5.14963 77.7443 5.59471 77.7443 6.11365V12H75.4489V10.7898H75.3807C75.2405 11.0625 75.053 11.303 74.8182 11.5114C74.5833 11.7159 74.3011 11.8769 73.9716 11.9943C73.642 12.108 73.2614 12.1648 72.8295 12.1648ZM73.5227 10.4943C73.8788 10.4943 74.1932 10.4243 74.4659 10.2841C74.7386 10.1402 74.9526 9.94698 75.1079 9.70456C75.2633 9.46213 75.3409 9.18751 75.3409 8.88069V7.95456C75.2651 8.0038 75.161 8.04925 75.0284 8.09092C74.8996 8.1288 74.7538 8.16478 74.5909 8.19887C74.428 8.22918 74.2651 8.25759 74.1023 8.2841C73.9394 8.30683 73.7917 8.32766 73.6591 8.3466C73.375 8.38827 73.1269 8.45456 72.9148 8.54547C72.7026 8.63637 72.5379 8.75948 72.4204 8.91478C72.303 9.0663 72.2443 9.25569 72.2443 9.48297C72.2443 9.81251 72.3636 10.0644 72.6023 10.2386C72.8447 10.4091 73.1515 10.4943 73.5227 10.4943Z" fill="black"/>
<path d="M82.0426 0.363647V12H79.6222V0.363647H82.0426Z" fill="black"/>
</g>
</svg>
