<svg width="82" height="12" viewBox="0 0 82 12" fill="none" xmlns="http://www.w3.org/2000/svg">
<g id="The Jornal">
<path d="M0 2.02841V0H9.55682V2.02841H5.99432V11.6364H3.5625V2.02841H0Z" fill="white"/>
<path d="M13.5057 6.59091V11.6364H11.0852V0H13.4375V4.44886H13.5398C13.7367 3.93371 14.0549 3.5303 14.4943 3.23864C14.9337 2.94318 15.4848 2.79545 16.1477 2.79545C16.7538 2.79545 17.2822 2.92803 17.733 3.19318C18.1875 3.45455 18.5398 3.83144 18.7898 4.32386C19.0436 4.8125 19.1686 5.39773 19.1648 6.07955V11.6364H16.7443V6.51136C16.7481 5.97348 16.6117 5.55492 16.3352 5.25568C16.0625 4.95644 15.6799 4.80682 15.1875 4.80682C14.858 4.80682 14.5663 4.87689 14.3125 5.01705C14.0625 5.1572 13.8655 5.36174 13.7216 5.63068C13.5814 5.89583 13.5095 6.21591 13.5057 6.59091Z" fill="white"/>
<path d="M25.0469 11.8068C24.1491 11.8068 23.3764 11.625 22.7287 11.2614C22.0848 10.8939 21.5885 10.375 21.2401 9.70455C20.8916 9.0303 20.7173 8.23295 20.7173 7.3125C20.7173 6.41477 20.8916 5.62689 21.2401 4.94886C21.5885 4.27083 22.0791 3.74242 22.7116 3.36364C23.348 2.98485 24.0942 2.79545 24.9503 2.79545C25.526 2.79545 26.062 2.88826 26.5582 3.07386C27.0582 3.25568 27.4938 3.5303 27.8651 3.89773C28.2401 4.26515 28.5317 4.72727 28.7401 5.28409C28.9484 5.83712 29.0526 6.48485 29.0526 7.22727V7.89205H21.6832V6.39205H26.7741C26.7741 6.04356 26.6984 5.73485 26.5469 5.46591C26.3954 5.19697 26.1851 4.98674 25.9162 4.83523C25.651 4.67992 25.3423 4.60227 24.9901 4.60227C24.6226 4.60227 24.2969 4.6875 24.0128 4.85795C23.7325 5.02462 23.5128 5.25 23.3537 5.53409C23.1946 5.81439 23.1132 6.12689 23.1094 6.47159V7.89773C23.1094 8.32955 23.1889 8.70265 23.348 9.01705C23.5109 9.33144 23.7401 9.57386 24.0355 9.74432C24.331 9.91477 24.6813 10 25.0866 10C25.3556 10 25.6018 9.96212 25.8253 9.88636C26.0488 9.81061 26.2401 9.69697 26.3991 9.54545C26.5582 9.39394 26.6795 9.20833 26.7628 8.98864L29.0014 9.13636C28.8878 9.67424 28.6548 10.1439 28.3026 10.5455C27.9541 10.9432 27.5033 11.2538 26.9503 11.4773C26.401 11.697 25.7666 11.8068 25.0469 11.8068Z" fill="white"/>
<path d="M39.0398 0H41.4716V8.11364C41.4716 8.86364 41.303 9.51515 40.9659 10.0682C40.6326 10.6212 40.1686 11.0473 39.5739 11.3466C38.9792 11.6458 38.2879 11.7955 37.5 11.7955C36.7992 11.7955 36.1629 11.6723 35.5909 11.4261C35.0227 11.1761 34.572 10.7973 34.2386 10.2898C33.9053 9.77841 33.7405 9.13636 33.7443 8.36364H36.1932C36.2008 8.67045 36.2633 8.93371 36.3807 9.15341C36.5019 9.36932 36.6667 9.53598 36.875 9.65341C37.0871 9.76705 37.3371 9.82386 37.625 9.82386C37.928 9.82386 38.1837 9.75947 38.392 9.63068C38.6042 9.49811 38.7652 9.30492 38.875 9.05114C38.9848 8.79735 39.0398 8.48485 39.0398 8.11364V0Z" fill="white"/>
<path d="M47.4034 11.8068C46.5208 11.8068 45.7576 11.6193 45.1136 11.2443C44.4735 10.8655 43.9792 10.339 43.6307 9.66477C43.2822 8.98674 43.108 8.20076 43.108 7.30682C43.108 6.4053 43.2822 5.61742 43.6307 4.94318C43.9792 4.26515 44.4735 3.73864 45.1136 3.36364C45.7576 2.98485 46.5208 2.79545 47.4034 2.79545C48.286 2.79545 49.0473 2.98485 49.6875 3.36364C50.3314 3.73864 50.8277 4.26515 51.1761 4.94318C51.5246 5.61742 51.6989 6.4053 51.6989 7.30682C51.6989 8.20076 51.5246 8.98674 51.1761 9.66477C50.8277 10.339 50.3314 10.8655 49.6875 11.2443C49.0473 11.6193 48.286 11.8068 47.4034 11.8068ZM47.4148 9.93182C47.8163 9.93182 48.1515 9.81818 48.4205 9.59091C48.6894 9.35985 48.892 9.04545 49.0284 8.64773C49.1686 8.25 49.2386 7.79735 49.2386 7.28977C49.2386 6.7822 49.1686 6.32955 49.0284 5.93182C48.892 5.53409 48.6894 5.2197 48.4205 4.98864C48.1515 4.75758 47.8163 4.64205 47.4148 4.64205C47.0095 4.64205 46.6686 4.75758 46.392 4.98864C46.1193 5.2197 45.9129 5.53409 45.7727 5.93182C45.6364 6.32955 45.5682 6.7822 45.5682 7.28977C45.5682 7.79735 45.6364 8.25 45.7727 8.64773C45.9129 9.04545 46.1193 9.35985 46.392 9.59091C46.6686 9.81818 47.0095 9.93182 47.4148 9.93182Z" fill="white"/>
<path d="M53.2727 11.6364V2.90909H55.6193V4.43182H55.7102C55.8693 3.89015 56.1364 3.48106 56.5114 3.20455C56.8864 2.92424 57.3182 2.78409 57.8068 2.78409C57.928 2.78409 58.0587 2.79167 58.1989 2.80682C58.339 2.82197 58.4621 2.8428 58.5682 2.86932V5.01705C58.4545 4.98295 58.2973 4.95265 58.0966 4.92614C57.8958 4.89962 57.7121 4.88636 57.5455 4.88636C57.1894 4.88636 56.8712 4.96402 56.5909 5.11932C56.3144 5.27083 56.0947 5.48295 55.9318 5.75568C55.7727 6.02841 55.6932 6.3428 55.6932 6.69886V11.6364H53.2727Z" fill="white"/>
<path d="M62.2401 6.59091V11.6364H59.8196V2.90909H62.1264V4.44886H62.2287C62.4219 3.94129 62.7457 3.53977 63.2003 3.24432C63.6548 2.94508 64.206 2.79545 64.8537 2.79545C65.4598 2.79545 65.9882 2.92803 66.4389 3.19318C66.8897 3.45833 67.2401 3.83712 67.4901 4.32955C67.7401 4.81818 67.8651 5.40152 67.8651 6.07955V11.6364H65.4446V6.51136C65.4484 5.97727 65.312 5.56061 65.0355 5.26136C64.759 4.95833 64.3783 4.80682 63.8935 4.80682C63.5677 4.80682 63.2798 4.87689 63.0298 5.01705C62.7836 5.1572 62.5904 5.36174 62.4503 5.63068C62.3139 5.89583 62.2438 6.21591 62.2401 6.59091Z" fill="white"/>
<path d="M72.2614 11.8011C71.7045 11.8011 71.2083 11.7045 70.7727 11.5114C70.3371 11.3144 69.9924 11.0246 69.7386 10.642C69.4886 10.2557 69.3636 9.77462 69.3636 9.19886C69.3636 8.71402 69.4527 8.30682 69.6307 7.97727C69.8087 7.64773 70.0511 7.38258 70.358 7.18182C70.6648 6.98106 71.0133 6.82955 71.4034 6.72727C71.7973 6.625 72.2102 6.55303 72.642 6.51136C73.1496 6.45833 73.5587 6.40909 73.8693 6.36364C74.1799 6.31439 74.4053 6.24242 74.5455 6.14773C74.6856 6.05303 74.7557 5.91288 74.7557 5.72727V5.69318C74.7557 5.33333 74.642 5.05492 74.4148 4.85795C74.1913 4.66098 73.8731 4.5625 73.4602 4.5625C73.0246 4.5625 72.678 4.65909 72.4205 4.85227C72.1629 5.04167 71.9924 5.2803 71.9091 5.56818L69.6705 5.38636C69.7841 4.85606 70.0076 4.39773 70.3409 4.01136C70.6742 3.62121 71.1042 3.32197 71.6307 3.11364C72.161 2.90152 72.7746 2.79545 73.4716 2.79545C73.9564 2.79545 74.4205 2.85227 74.8636 2.96591C75.3106 3.07955 75.7064 3.25568 76.0511 3.49432C76.3996 3.73295 76.6742 4.03977 76.875 4.41477C77.0758 4.78598 77.1761 5.23106 77.1761 5.75V11.6364H74.8807V10.4261H74.8125C74.6723 10.6989 74.4848 10.9394 74.25 11.1477C74.0152 11.3523 73.733 11.5133 73.4034 11.6307C73.0739 11.7443 72.6932 11.8011 72.2614 11.8011ZM72.9545 10.1307C73.3106 10.1307 73.625 10.0606 73.8977 9.92045C74.1705 9.77652 74.3845 9.58333 74.5398 9.34091C74.6951 9.09849 74.7727 8.82386 74.7727 8.51705V7.59091C74.697 7.64015 74.5928 7.68561 74.4602 7.72727C74.3314 7.76515 74.1856 7.80114 74.0227 7.83523C73.8598 7.86553 73.697 7.89394 73.5341 7.92045C73.3712 7.94318 73.2235 7.96402 73.0909 7.98295C72.8068 8.02462 72.5587 8.09091 72.3466 8.18182C72.1345 8.27273 71.9697 8.39583 71.8523 8.55114C71.7348 8.70265 71.6761 8.89205 71.6761 9.11932C71.6761 9.44886 71.7954 9.70076 72.0341 9.875C72.2765 10.0455 72.5833 10.1307 72.9545 10.1307Z" fill="white"/>
<path d="M81.4744 0V11.6364H79.054V0H81.4744Z" fill="white"/>
</g>
</svg>
